<?xml version="1.0" standalone="no"?>
<!DOCTYPE svg PUBLIC "-//W3C//DTD SVG 20010904//EN"
 "http://www.w3.org/TR/2001/REC-SVG-20010904/DTD/svg10.dtd">
<svg version="1.0" xmlns="http://www.w3.org/2000/svg"
 width="1920.000000pt" height="1080.000000pt" viewBox="0 0 1920.000000 1080.000000"
 preserveAspectRatio="xMidYMid meet">

<g transform="translate(0.000000,1080.000000) scale(0.100000,-0.100000)"
fill="#000000" stroke="none">
<path d="M6534 10766 c-35 -44 -62 -112 -56 -142 2 -13 30 -45 61 -71 31 -26
60 -53 64 -60 4 -7 15 -13 22 -13 8 0 15 -6 15 -14 0 -10 15 -17 44 -21 42 -7
66 1 145 50 49 30 144 128 147 152 1 7 11 28 22 46 10 18 22 50 26 70 l7 37
-235 0 -235 0 -27 -34z"/>
<path d="M5025 9651 c-7 -6 -13 -8 -45 -10 -11 0 -20 -8 -20 -16 0 -8 -8 -19
-19 -24 -19 -10 -35 -81 -19 -81 4 0 8 -4 8 -9 0 -12 37 -90 58 -123 42 -65
112 -188 112 -196 0 -5 8 -16 18 -25 10 -9 29 -38 42 -64 21 -44 76 -131 89
-143 3 -3 13 -18 21 -33 8 -16 23 -39 35 -52 19 -21 46 -65 69 -112 6 -13 14
-23 18 -23 4 0 15 -15 24 -32 9 -18 23 -37 30 -41 8 -4 14 -12 14 -18 0 -5 26
-43 58 -85 31 -41 67 -88 78 -105 12 -16 63 -73 114 -126 51 -54 126 -142 167
-198 121 -161 305 -345 345 -345 10 0 18 -7 18 -15 0 -24 26 -17 38 10 26 56
15 127 -62 415 -41 151 -111 511 -136 695 -12 90 -16 218 -11 376 5 149 -21
201 -134 275 -70 46 -154 58 -545 79 -57 3 -107 9 -110 14 -6 10 -246 22 -255
12z"/>
<path d="M4160 9267 c0 -15 -12 -17 -79 -17 -70 0 -83 -3 -109 -25 -17 -14
-34 -25 -40 -25 -16 0 -172 -179 -172 -198 0 -5 -9 -12 -20 -15 -11 -3 -20
-13 -20 -22 0 -21 -30 -79 -37 -71 -6 6 -23 -23 -66 -111 -14 -29 -31 -53 -36
-53 -6 0 -11 -7 -11 -16 0 -8 -11 -30 -25 -48 -14 -18 -25 -38 -25 -45 0 -6
-9 -25 -20 -41 -11 -17 -29 -43 -40 -60 -11 -16 -20 -33 -20 -38 0 -11 -108
-226 -141 -282 -12 -19 -25 -36 -30 -38 -5 -2 -9 -9 -9 -16 0 -7 -9 -21 -20
-31 -11 -10 -20 -26 -20 -35 0 -9 -13 -31 -30 -48 -16 -18 -30 -37 -30 -44 0
-6 -6 -19 -14 -27 -7 -9 -24 -36 -37 -61 -13 -25 -29 -52 -35 -60 -6 -8 -33
-55 -59 -105 -26 -49 -54 -97 -61 -106 -8 -8 -14 -21 -14 -28 0 -7 -9 -24 -20
-38 -11 -14 -20 -31 -20 -38 0 -7 -11 -37 -24 -66 -14 -30 -31 -94 -38 -142
-11 -77 -10 -96 4 -150 28 -107 47 -140 188 -337 67 -94 107 -144 222 -285
108 -131 244 -225 325 -225 68 0 81 44 52 180 -75 352 -75 435 -3 739 14 57
34 126 46 155 11 28 26 69 33 91 13 39 76 199 95 240 5 11 21 52 36 90 40 102
100 223 184 365 16 28 30 53 30 56 0 2 9 23 19 47 11 23 29 71 40 107 52 173
72 243 96 340 14 58 30 113 35 122 5 9 13 35 16 58 4 22 11 43 15 46 5 3 9 16
9 29 0 13 5 27 11 31 6 3 9 18 6 33 -3 14 1 37 8 51 20 36 18 49 -10 60 -22 9
-30 20 -26 42 0 4 -14 15 -32 24 -17 9 -42 26 -54 37 -20 18 -23 18 -23 4z"/>
</g>
</svg>
